<?xml version="1.0" encoding="utf-8"?>
<!-- Generator: Adobe Illustrator 25.0.0, SVG Export Plug-In . SVG Version: 6.00 Build 0)  -->
<svg version="1.1" id="Layer_1" xmlns="http://www.w3.org/2000/svg" xmlns:xlink="http://www.w3.org/1999/xlink" x="0px" y="0px"
	 viewBox="0 0 854 287" style="enable-background:new 0 0 854 287;" xml:space="preserve" xmlns:c2pa="http://c2pa.org/manifest"><metadata><c2pa:manifest>AAAWgmp1bWIAAAAeanVtZGMycGEAEQAQgAAAqgA4m3EDYzJwYQAAABZcanVtYgAAAEdqdW1kYzJtYQARABCAAACqADibcQN1cm46YzJwYTo5NGY2N2MyOS0xYWIxLTQ2MWYtODMzYy02Y2MzNTlmNmM1ZTAAAAADl2p1bWIAAAApanVtZGMyYXMAEQAQgAAAqgA4m3EDYzJwYS5hc3NlcnRpb25zAAAAALxqdW1iAAAARGp1bWRjYm9yABEAEIAAAKoAOJtxE2MycGEuaW5ncmVkaWVudC52MwAAAAAYYzJzaCY35a9MWmpx86innxWGeLwAAABwY2JvcqNpZGM6Zm9ybWF0bWltYWdlL3N2Zyt4bWxqaW5zdGFuY2VJRHgseG1wOmlpZDo5ZTRlYmY2ZS01MjNhLTQ0NGUtYjUyOC1lMTQzN2Q2YjMzMzFscmVsYXRpb25zaGlwaHBhcmVudE9mAAAB4mp1bWIAAABBanVtZGNib3IAEQAQgAAAqgA4m3ETYzJwYS5hY3Rpb25zLnYyAAAAABhjMnNoN0tgG4t5q5v0a5tFOJJL4wAAAZljYm9yomdhY3Rpb25zgqJmYWN0aW9ua2MycGEub3BlbmVkanBhcmFtZXRlcnOha2luZ3JlZGllbnRzgaJjdXJseC1zZWxmI2p1bWJmPWMycGEuYXNzZXJ0aW9ucy9jMnBhLmluZ3JlZGllbnQudjNkaGFzaFggqZqITNaZbHnKpVVpSGC10ZNk6xM4VcYc5pURRK//DrqkZmFjdGlvbngdY29tLmFudGhyb3BpYy5jbGF1ZGUucHJvdmlkZWRqcGFyYW1ldGVyc6F4H2NvbS5hbnRocm9waWMub3JpZ2luLWNvbmZpZGVuY2VndW5rbm93bmtkZXNjcmlwdGlvbnhmQ2xhdWRlIHByb3ZpZGVkIHRoaXMgZmlsZSBhdCB0aGUgcmVxdWVzdCBvZiBhIHVzZXIgYW5kIG1heSBoYXZlIGNyZWF0ZWQgb3IgbW9kaWZpZWQgdGhlIGZpbGUgY29udGVudHMubXNvZnR3YXJlQWdlbnShZG5hbWVmQ2xhdWRlcmFsbEFjdGlvbnNJbmNsdWRlZPUAAADIanVtYgAAAEBqdW1kY2JvcgARABCAAACqADibcRNjMnBhLmhhc2guZGF0YQAAAAAYYzJzaJUuHg7ft+uhqqCk54c4Gr0AAACAY2JvcqVjYWxnZnNoYTI1NmNwYWRMAAAAAAAAAAAAAAAAZGhhc2hYIOolpe5XrJVKtSFZTSXrbR1svl7MQ+MAZddEIoxJdtv1ZG5hbWVuanVtYmYgbWFuaWZlc3RqZXhjbHVzaW9uc4GiZXN0YXJ0GQGbZmxlbmd0aBkeBAAAAj5qdW1iAAAAJ2p1bWRjMmNsABEAEIAAAKoAOJtxA2MycGEuY2xhaW0udjIAAAACD2Nib3KlY2FsZ2ZzaGEyNTZpc2lnbmF0dXJleE1zZWxmI2p1bWJmPS9jMnBhL3VybjpjMnBhOjk0ZjY3YzI5LTFhYjEtNDYxZi04MzNjLTZjYzM1OWY2YzVlMC9jMnBhLnNpZ25hdHVyZWppbnN0YW5jZUlEeCx4bXA6aWlkOjZjODQ1NWNhLTMxMzMtNGZlYi1hMWUyLWExOWE3NzE4MTYwNXJjcmVhdGVkX2Fzc2VydGlvbnODomN1cmx4LXNlbGYjanVtYmY9YzJwYS5hc3NlcnRpb25zL2MycGEuaW5ncmVkaWVudC52M2RoYXNoWCCpmohM1plsecqlVWlIYLXRk2TrEzhVxhzmlRFEr/8OuqJjdXJseCpzZWxmI2p1bWJmPWMycGEuYXNzZXJ0aW9ucy9jMnBhLmFjdGlvbnMudjJkaGFzaFggynz7k4j+EahE5X2GOxtOuh/mu45ckCHFI4cNEhVxugaiY3VybHgpc2VsZiNqdW1iZj1jMnBhLmFzc2VydGlvbnMvYzJwYS5oYXNoLmRhdGFkaGFzaFgg1EltUqHuJKRIQkQAvSuDkUdBkBMOJp1SaypEgtpanvV0Y2xhaW1fZ2VuZXJhdG9yX2luZm+jZG5hbWVvQW50aHJvcGljIEZpbGVzZ3ZlcnNpb25lMS4wLjBrc3BlY1ZlcnNpb25lMi40LjAAABA4anVtYgAAAChqdW1kYzJjcwARABCAAACqADibcQNjMnBhLnNpZ25hdHVyZQAAABAIY2JvctKEWQISogEmGCFZAgowggIGMIIBjaADAgECAhRA5aAK7sI50L64g/oGQgU9Z1UTADAKBggqhkjOPQQDAzBJMRcwFQYDVQQKEw5BbnRocm9waWMsIFBCQzEuMCwGA1UEAxMlQW50aHJvcGljIENvbnRlbnQgQ3JlZGVudGlhbHMgUm9vdCBDQTAeFw0yNjA4MDcxODQzNTZaFw0yODA4MDYxOTQzNTZaMEQxFzAVBgNVBAoTDkFudGhyb3BpYywgUEJDMSkwJwYDVQQDEyBBbnRocm9waWMgQ2xhdWRlIENvbnRlbnQgU2lnbmluZzBZMBMGByqGSM49AgEGCCqGSM49AwEHA0IABJh6CmvLUBgFFNU0vUKlOVtE6djd17L5SuwX0LemFisBM3dkd/3cyjxFA3Qo5S46fX0/ihY0VZ7mfb9KF703t5OjWDBWMA4GA1UdDwEB/wQEAwIHgDAVBgNVHSUEDjAMBgorBgEEAYPoXgIBMAwGA1UdEwEB/wQCMAAwHwYDVR0jBBgwFoAUzlHiBIFOZFsj+OPEz5o+nMHXXMIwCgYIKoZIzj0EAwMDZwAwZAIwMXMdFJ4BetLLVY7ORuE9noqbbAZOZn/aArXyTwFAZfKrPzxF2vPoJNf1+UCdg1XGAjBwX1zd9WGqYkqmL5SFqw1QySjr1zJfpJM9+1rdDwSPLMOPOjKuiXjoU/pUUeG9RwmhY3BhZFkNngAAAAAAAAAAAAAAAAAAAAAAAAAAAAAAAAAAAAAAAAAAAAAAAAAAAAAAAAAAAAAAAAAAAAAAAAAAAAAAAAAAAAAAAAAAAAAAAAAAAAAAAAAAAAAAAAAAAAAAAAAAAAAAAAAAAAAAAAAAAAAAAAAAAAAAAAAAAAAAAAAAAAAAAAAAAAAAAAAAAAAAAAAAAAAAAAAAAAAAAAAAAAAAAAAAAAAAAAAAAAAAAAAAAAAAAAAAAAAAAAAAAAAAAAAAAAAAAAAAAAAAAAAAAAAAAAAAAAAAAAAAAAAAAAAAAAAAAAAAAAAAAAAAAAAAAAAAAAAAAAAAAAAAAAAAAAAAAAAAAAAAAAAAAAAAAAAAAAAAAAAAAAAAAAAAAAAAAAAAAAAAAAAAAAAAAAAAAAAAAAAAAAAAAAAAAAAAAAAAAAAAAAAAAAAAAAAAAAAAAAAAAAAAAAAAAAAAAAAAAAAAAAAAAAAAAAAAAAAAAAAAAAAAAAAAAAAAAAAAAAAAAAAAAAAAAAAAAAAAAAAAAAAAAAAAAAAAAAAAAAAAAAAAAAAAAAAAAAAAAAAAAAAAAAAAAAAAAAAAAAAAAAAAAAAAAAAAAAAAAAAAAAAAAAAAAAAAAAAAAAAAAAAAAAAAAAAAAAAAAAAAAAAAAAAAAAAAAAAAAAAAAAAAAAAAAAAAAAAAAAAAAAAAAAAAAAAAAAAAAAAAAAAAAAAAAAAAAAAAAAAAAAAAAAAAAAAAAAAAAAAAAAAAAAAAAAAAAAAAAAAAAAAAAAAAAAAAAAAAAAAAAAAAAAAAAAAAAAAAAAAAAAAAAAAAAAAAAAAAAAAAAAAAAAAAAAAAAAAAAAAAAAAAAAAAAAAAAAAAAAAAAAAAAAAAAAAAAAAAAAAAAAAAAAAAAAAAAAAAAAAAAAAAAAAAAAAAAAAAAAAAAAAAAAAAAAAAAAAAAAAAAAAAAAAAAAAAAAAAAAAAAAAAAAAAAAAAAAAAAAAAAAAAAAAAAAAAAAAAAAAAAAAAAAAAAAAAAAAAAAAAAAAAAAAAAAAAAAAAAAAAAAAAAAAAAAAAAAAAAAAAAAAAAAAAAAAAAAAAAAAAAAAAAAAAAAAAAAAAAAAAAAAAAAAAAAAAAAAAAAAAAAAAAAAAAAAAAAAAAAAAAAAAAAAAAAAAAAAAAAAAAAAAAAAAAAAAAAAAAAAAAAAAAAAAAAAAAAAAAAAAAAAAAAAAAAAAAAAAAAAAAAAAAAAAAAAAAAAAAAAAAAAAAAAAAAAAAAAAAAAAAAAAAAAAAAAAAAAAAAAAAAAAAAAAAAAAAAAAAAAAAAAAAAAAAAAAAAAAAAAAAAAAAAAAAAAAAAAAAAAAAAAAAAAAAAAAAAAAAAAAAAAAAAAAAAAAAAAAAAAAAAAAAAAAAAAAAAAAAAAAAAAAAAAAAAAAAAAAAAAAAAAAAAAAAAAAAAAAAAAAAAAAAAAAAAAAAAAAAAAAAAAAAAAAAAAAAAAAAAAAAAAAAAAAAAAAAAAAAAAAAAAAAAAAAAAAAAAAAAAAAAAAAAAAAAAAAAAAAAAAAAAAAAAAAAAAAAAAAAAAAAAAAAAAAAAAAAAAAAAAAAAAAAAAAAAAAAAAAAAAAAAAAAAAAAAAAAAAAAAAAAAAAAAAAAAAAAAAAAAAAAAAAAAAAAAAAAAAAAAAAAAAAAAAAAAAAAAAAAAAAAAAAAAAAAAAAAAAAAAAAAAAAAAAAAAAAAAAAAAAAAAAAAAAAAAAAAAAAAAAAAAAAAAAAAAAAAAAAAAAAAAAAAAAAAAAAAAAAAAAAAAAAAAAAAAAAAAAAAAAAAAAAAAAAAAAAAAAAAAAAAAAAAAAAAAAAAAAAAAAAAAAAAAAAAAAAAAAAAAAAAAAAAAAAAAAAAAAAAAAAAAAAAAAAAAAAAAAAAAAAAAAAAAAAAAAAAAAAAAAAAAAAAAAAAAAAAAAAAAAAAAAAAAAAAAAAAAAAAAAAAAAAAAAAAAAAAAAAAAAAAAAAAAAAAAAAAAAAAAAAAAAAAAAAAAAAAAAAAAAAAAAAAAAAAAAAAAAAAAAAAAAAAAAAAAAAAAAAAAAAAAAAAAAAAAAAAAAAAAAAAAAAAAAAAAAAAAAAAAAAAAAAAAAAAAAAAAAAAAAAAAAAAAAAAAAAAAAAAAAAAAAAAAAAAAAAAAAAAAAAAAAAAAAAAAAAAAAAAAAAAAAAAAAAAAAAAAAAAAAAAAAAAAAAAAAAAAAAAAAAAAAAAAAAAAAAAAAAAAAAAAAAAAAAAAAAAAAAAAAAAAAAAAAAAAAAAAAAAAAAAAAAAAAAAAAAAAAAAAAAAAAAAAAAAAAAAAAAAAAAAAAAAAAAAAAAAAAAAAAAAAAAAAAAAAAAAAAAAAAAAAAAAAAAAAAAAAAAAAAAAAAAAAAAAAAAAAAAAAAAAAAAAAAAAAAAAAAAAAAAAAAAAAAAAAAAAAAAAAAAAAAAAAAAAAAAAAAAAAAAAAAAAAAAAAAAAAAAAAAAAAAAAAAAAAAAAAAAAAAAAAAAAAAAAAAAAAAAAAAAAAAAAAAAAAAAAAAAAAAAAAAAAAAAAAAAAAAAAAAAAAAAAAAAAAAAAAAAAAAAAAAAAAAAAAAAAAAAAAAAAAAAAAAAAAAAAAAAAAAAAAAAAAAAAAAAAAAAAAAAAAAAAAAAAAAAAAAAAAAAAAAAAAAAAAAAAAAAAAAAAAAAAAAAAAAAAAAAAAAAAAAAAAAAAAAAAAAAAAAAAAAAAAAAAAAAAAAAAAAAAAAAAAAAAAAAAAAAAAAAAAAAAAAAAAAAAAAAAAAAAAAAAAAAAAAAAAAAAAAAAAAAAAAAAAAAAAAAAAAAAAAAAAAAAAAAAAAAAAAAAAAAAAAAAAAAAAAAAAAAAAAAAAAAAAAAAAAAAAAAAAAAAAAAAAAAAAAAAAAAAAAAAAAAAAAAAAAAAAAAAAAAAAAAAAAAAAAAAAAAAAAAAAAAAAAAAAAAAAAAAAAAAAAAAAAAAAAAAAAAAAAAAAAAAAAAAAAAAAAAAAAAAAAAAAAAAAAAAAAAAAAAAAAAAAAAAAAAAAAAAAAAAAAAAAAAAAAAAAAAAAAAAAAAAAAAAAAAAAAAAAAAAAAAAAAAAAAAAAAAAAAAAAAAAAAAAAAAAAAAAAAAAAAAAAAAAAAAAAAAAAAAAAAAAAAAAAAAAAAAAAAAAAAAAAAAAAAAAAAAAAAAAAAAAAAAAAAAAAAAAAAAAAAAAAAAAAAAAAAAAAAAAAAAAAAAAAAAAAAAAAAAAAAAAAAAAAAAAAAAAAAAAAAAAAAAAAAAAAAAAAAAAAAAAAAAAAAAAAAAAAAAAAAAAAAAAAAAAAAAAAAAAAAAAAAAAAAAAAAAAAAAAAAAAAAAAAAAAAAAAAAAAAAAAAAAAAAAAAAAAAAAAAAAAAAAAAAAAAAAAAAAAAAAAAAAAAAAAAAAAAAAAAAAAAAAAAAAAAAAAAAAAAAAAAAAAAAAAAAAAAAAAAAAAAAAAAAAAAAAAAAAAAAAAAAAAAAAAAAAAAAAAAAAAAAAAAAAAAAAAAAAAAAAAAAAAAAAAAAAAAAAAAAAAAAAAAAAAAAAAAAAAAAAAAAAAAAAAAAAAAAAAAAAAAAAAAAAAAAAAAAAAAAAAAAAAAAAAAAAAAAAAAAAAAAAAAAAAAAAAAAAAAAAAAAAAAAAAAAAAAAAAAAAAAAAAAAAAAAAAAAAAAAAAAAAAAAAAAAAAAAAAAAAAAAAAAAAAAAAAAAAAAAAAAAAAAAAAAAAAAAAAAAAAAAAAAAAAAAAAAAAAAAAAAAAAAAAAAAAAAAAAAAAAAAAAAAAAAAAAAAAAAAAAAAAAAAAAAAAAAAAAAAAAAAAAAAAAAAAAAAAAAAAAAAAAAAAAAAAAAAAAAAAAAAAAAAAAAAAAAAAAAAAAAAAAAAAAAAAAAAAAAAAAAAAAAAAAAAAAAAAAAAAAAAAAAAAAAAAAAAAAAAAAAAAAAAAAAAAAAAAAAAAAAAAAAAAAAAAAAAAAAAAAAAAAAAAAAAAAAAAAAAAAAAAAAAAAAAAAAAAAAAAAAAAAAAAAAAAAAAAAAAAAAAAAAAAAAAAAAAAAAAAAAAAAAAAAAAAAAAAAAAAAAAAAAAAAAAAAAAAAAAAAAAAAAAAAAAAAAAAAAAAAAAAAAAAAAAAAAAAAAAAAAAAAAAAAAAAAAAAAAAAAAAAAAAAAAAAAAAAAAAAAAAAAAAAAAAAAAAAAAAAAAAAAAAAAAAAAAAAAAAAAAAAAAAAAAAAAAAAAAAAAAAAAAAAAAAAAAAAAAAAAAAAAAAAAAAAAAAAAAAAAAAAAAAAAAAAAAAAAAAAAAAAAAAAAAAAAAAAAAAAAAAAAAAAAAAAAAAAAAAAAAAAAAAAAAAAAAAAAAAAAAAAAAAAAAAAAAAAAAAAAAAAAAAAAAAAAAAAAAAAAAAAAAAAAAAAAAAAAAAAAAAAAAAAAAAAAAAAAAAAAAAAAAAAAAAAAAAAAAAAAAAAAAAAAAAAAAAAAAAAAAAAAAAAAAAAAAAAAAAAAAAAAAAAAAAAAAAAAAAAAAAAAAAAAAAAAAAAAAAAAAAAAAAAAAAAAAAAAAAAAAAAAAAAAAAAAAAAAAAAAAAAAAAAAAAAAAAAAAAAAAAAAAAAAAAAAAAAAAAAAAAAAAAAAAAAAAAAPZYQL4axuRZAlIYKKTQ1joDaCpcBwLuxklIrWDELceEbHKDJawv9JJ9esgSYVicL+dGnFufTMLZ8+KzOKtlTbscVQk=</c2pa:manifest></metadata>
<style type="text/css">
	.st0{clip-path:url(#SVGID_2_);}
	.st1{clip-path:url(#SVGID_4_);}
	.st2{clip-path:url(#SVGID_6_);}
	.st3{clip-path:url(#SVGID_8_);}
	.st4{fill:none;}
	.st5{clip-path:url(#SVGID_10_);}
	.st6{clip-path:url(#SVGID_12_);}
	.st7{clip-path:url(#SVGID_14_);}
	.st8{clip-path:url(#SVGID_16_);}
	.st9{clip-path:url(#SVGID_18_);}
	.st10{clip-path:url(#SVGID_20_);}
	.st11{clip-path:url(#SVGID_22_);}
	.st12{clip-path:url(#SVGID_24_);}
	.st13{clip-path:url(#SVGID_26_);}
	.st14{clip-path:url(#SVGID_28_);}
	.st15{clip-path:url(#SVGID_30_);}
	.st16{clip-path:url(#SVGID_32_);}
	.st17{clip-path:url(#SVGID_34_);}
	.st18{clip-path:url(#SVGID_36_);}
	.st19{clip-path:url(#SVGID_38_);}
	.st20{clip-path:url(#SVGID_40_);}
	.st21{clip-path:url(#SVGID_42_);}
	.st22{clip-path:url(#SVGID_44_);}
	.st23{clip-path:url(#SVGID_46_);}
	.st24{clip-path:url(#SVGID_48_);}
	.st25{clip-path:url(#SVGID_50_);}
</style>
<g>
	<g>
		<defs>
			<rect id="SVGID_1_" x="31" y="41.1" width="792" height="223.7"/>
		</defs>
		<clipPath id="SVGID_2_">
			<use xlink:href="#SVGID_1_"  style="overflow:visible;"/>
		</clipPath>
		<g class="st0">
			<g>
				<defs>
					<rect id="SVGID_3_" x="31" y="-153" width="792" height="612"/>
				</defs>
				<clipPath id="SVGID_4_">
					<use xlink:href="#SVGID_3_"  style="overflow:visible;"/>
				</clipPath>
				<polygon class="st1" points="380.8,41.1 380.8,45.5 389.5,45.5 389.5,68.1 394.3,68.1 394.3,45.5 402.9,45.5 402.9,41.1 				"/>
			</g>
			<g>
				<defs>
					<rect id="SVGID_5_" x="31" y="-153" width="792" height="612"/>
				</defs>
				<clipPath id="SVGID_6_">
					<use xlink:href="#SVGID_5_"  style="overflow:visible;"/>
				</clipPath>
				<polygon class="st2" points="431.6,41.1 431.6,52.4 418.6,52.4 418.6,41.1 413.8,41.1 413.8,68.1 418.6,68.1 418.6,56.7 
					431.6,56.7 431.6,68.1 436.3,68.1 436.3,41.1 				"/>
			</g>
			<g>
				<defs>
					<rect id="SVGID_7_" x="31" y="-153" width="792" height="612"/>
				</defs>
				<clipPath id="SVGID_8_">
					<use xlink:href="#SVGID_7_"  style="overflow:visible;"/>
				</clipPath>
				<polygon class="st3" points="449.2,41.1 449.2,68.1 469.5,68.1 469.5,63.8 454,63.8 454,56.6 467.6,56.6 467.6,52.4 454,52.4 
					454,45.4 469.3,45.4 469.3,41.1 				"/>
			</g>
		</g>
	</g>
</g>
<rect x="31" y="41.1" class="st4" width="792" height="223.7"/>
<rect x="31" y="41.1" class="st4" width="792" height="223.7"/>
<g>
	<defs>
		<rect id="SVGID_9_" x="31" y="-153" width="792" height="612"/>
	</defs>
	<clipPath id="SVGID_10_">
		<use xlink:href="#SVGID_9_"  style="overflow:visible;"/>
	</clipPath>
	<path class="st5" d="M501.3,57.7H796c0.9,0,1.7-0.8,1.7-1.7s-0.8-1.7-1.7-1.7H501.3c-0.9,0-1.7,0.8-1.7,1.7
		C499.6,56.9,500.4,57.7,501.3,57.7"/>
</g>
<g>
	<defs>
		<rect id="SVGID_11_" x="31" y="-153" width="792" height="612"/>
	</defs>
	<clipPath id="SVGID_12_">
		<use xlink:href="#SVGID_11_"  style="overflow:visible;"/>
	</clipPath>
	<path class="st6" d="M352.6,54.3H57.9c-0.9,0-1.7,0.8-1.7,1.7s0.8,1.7,1.7,1.7h294.7c0.9,0,1.7-0.8,1.7-1.7
		C354.3,55.1,353.6,54.3,352.6,54.3"/>
</g>
<g>
	<defs>
		<rect id="SVGID_13_" x="31" y="-153" width="792" height="612"/>
	</defs>
	<clipPath id="SVGID_14_">
		<use xlink:href="#SVGID_13_"  style="overflow:visible;"/>
	</clipPath>
	<path class="st7" d="M85.6,164.5h-0.2c-6.1-22.2-12.1-44.3-18-66.6c-4.5-0.2-6.7-0.3-11.1-0.5v111.3c4.6-0.2,6.9-0.2,11.6-0.4
		c0-26,0-39.7,0-66.4h0.2c5.8,22,11.9,44,18.3,65.8c4.6-0.2,6.9-0.2,11.5-0.4c0-36,0-72,0-108c-5-0.2-7.4-0.3-12.3-0.5
		C85.6,98.8,85.6,164.5,85.6,164.5z"/>
</g>
<g>
	<defs>
		<rect id="SVGID_15_" x="31" y="-153" width="792" height="612"/>
	</defs>
	<clipPath id="SVGID_16_">
		<use xlink:href="#SVGID_15_"  style="overflow:visible;"/>
	</clipPath>
	<path class="st8" d="M121.5,206.5c15.2-0.5,23-0.7,38.9-1.2v-14.6c-10.5,0.2-15.7,0.3-26,0.5v-44.1h23.1v-13.4h-23.1v-18.8
		c10.3,0.3,15.5,0.5,26,0.9v-13.7c-15.8-0.7-23.6-1.1-38.9-1.7C121.5,100.4,121.5,206.5,121.5,206.5z"/>
</g>
<g>
	<defs>
		<rect id="SVGID_17_" x="31" y="-153" width="792" height="612"/>
	</defs>
	<clipPath id="SVGID_18_">
		<use xlink:href="#SVGID_17_"  style="overflow:visible;"/>
	</clipPath>
	<path class="st9" d="M182.5,103c0,33.9,0,67.7,0,101.6c5.4-0.2,8.1-0.2,13.5-0.4c0-33.5,0-67,0-100.6
		C190.6,103.4,187.9,103.3,182.5,103"/>
</g>
<g>
	<defs>
		<rect id="SVGID_19_" x="31" y="-153" width="792" height="612"/>
	</defs>
	<clipPath id="SVGID_20_">
		<use xlink:href="#SVGID_19_"  style="overflow:visible;"/>
	</clipPath>
	<path class="st10" d="M322.6,133.7h-16.5v-25c-5.4-0.2-8-0.4-13.5-0.6c0,31.1,0,62.2,0.1,93.4c5.4-0.2,8-0.2,13.4-0.4v-53.9l0,0
		h16.5h0.1v53.4c5.2-0.2,7.9-0.2,13.1-0.4V110c-5.3-0.2-7.9-0.4-13.2-0.6C322.6,119.2,322.6,125.9,322.6,133.7"/>
</g>
<g>
	<defs>
		<rect id="SVGID_21_" x="31" y="-153" width="792" height="612"/>
	</defs>
	<clipPath id="SVGID_22_">
		<use xlink:href="#SVGID_21_"  style="overflow:visible;"/>
	</clipPath>
	<path class="st11" d="M456,193.8c1.9-1.6,3.5-3.6,4.7-6.1s1.8-5.6,1.8-9.2c0-18.2,0-27.6,0.1-45.8c0-3.5-0.6-6.5-1.8-9.1
		c-1.2-2.6-2.8-4.8-4.7-6.4c-1.9-1.6-4.2-2.7-6.5-3.4c-2.4-0.7-4.8-1.1-7.2-1c-2.4,0.1-4.7,0.6-7.1,1.6c-2.3,0.9-4.4,2.2-6.2,3.9
		c-1.9,1.7-3.4,3.7-4.5,6.3c-1.2,2.5-1.7,5.5-1.7,8.8c0,17.7-0.1,26.8-0.1,44.5c0,3.5,0.5,6.5,1.6,8.9c1.1,2.5,2.7,4.5,4.5,6.2
		s3.9,3.1,6.2,4c2.3,0.9,4.7,1.4,7.1,1.5s4.8-0.3,7.2-1C451.8,196.7,454,195.4,456,193.8 M442.3,186.6c-2.2-0.1-4-0.8-5.6-2.2
		s-2.4-3.5-2.4-6.4c0.1-17.8,0.1-27,0.1-44.7c0-2.9,0.8-5,2.4-6.5c1.6-1.4,3.4-2.1,5.6-2.2c2.1-0.1,4,0.5,5.6,1.9
		c1.6,1.3,2.4,3.5,2.4,6.4c0,18,0,27.3-0.1,45.3c0,2.9-0.8,5.1-2.4,6.4C446.3,186,444.4,186.7,442.3,186.6"/>
</g>
<g>
	<defs>
		<rect id="SVGID_23_" x="31" y="-153" width="792" height="612"/>
	</defs>
	<clipPath id="SVGID_24_">
		<use xlink:href="#SVGID_23_"  style="overflow:visible;"/>
	</clipPath>
	<path class="st12" d="M583.6,107.1v26.6h-16.8v-25.8c-5.4,0.2-8.1,0.4-13.5,0.6c0,30.9,0,61.9,0.1,92.8c5.4,0.2,8.1,0.2,13.5,0.4
		l0,0c0-13.8,0-45.3,0-54.5h16.7l0,0v55c5.5,0.2,8.2,0.2,13.6,0.4c0-32,0-64-0.1-96.1C591.8,106.7,589,106.8,583.6,107.1"/>
</g>
<g>
	<defs>
		<rect id="SVGID_25_" x="31" y="-153" width="792" height="612"/>
	</defs>
	<clipPath id="SVGID_26_">
		<use xlink:href="#SVGID_25_"  style="overflow:visible;"/>
	</clipPath>
	<path class="st13" d="M661,108.7c-2.1-1.9-4.7-3.2-7.4-4.1s-5.4-1.3-8.2-1.1c-2.8,0.1-5.5,0.8-8.2,1.9s-5.1,2.7-7.3,4.7
		c-2.2,2.1-4,4.6-5.4,7.7c-1.3,3-2,6.5-2,10.5c0,20.7,0,31.4,0,52.2c0,4.1,0.7,7.6,2,10.6c1.3,2.9,3.2,5.4,5.4,7.3
		c2.1,2,4.6,3.6,7.3,4.7c2.7,1.1,5.4,1.6,8.2,1.7c2.8,0.1,5.5-0.3,8.2-1.3c2.7-0.9,5.1-2.4,7.4-4.4c2.1-1.9,3.8-4.3,5.1-7.3
		s2-6.6,2-10.9v-54c0-4.1-0.7-7.7-2-10.7C664.9,113.1,663.1,110.5,661,108.7 M651.9,188.4c-1.8,1.6-4,2.4-6.4,2.3
		c-2.5,0-4.6-0.9-6.5-2.6c-1.8-1.6-2.7-4.2-2.7-7.6c0-20.9,0-31.8,0-52.7c0-3.4,0.9-6,2.7-7.7s4-2.6,6.5-2.7s4.6,0.6,6.4,2.2
		c1.8,1.6,2.7,4.1,2.7,7.6c0,21.2,0,32.2,0,53.4C654.7,184.2,653.8,186.8,651.9,188.4"/>
</g>
<g>
	<defs>
		<rect id="SVGID_27_" x="31" y="-153" width="792" height="612"/>
	</defs>
	<clipPath id="SVGID_28_">
		<use xlink:href="#SVGID_27_"  style="overflow:visible;"/>
	</clipPath>
	<path class="st14" d="M729.1,105.9c-2-2-4.4-3.4-7-4.4s-5.2-1.4-7.8-1.2c-2.6,0.1-5.2,0.7-7.9,1.9c-2.6,1.2-5,2.8-7,4.9
		c-2.2,2.2-3.9,4.9-5.2,8.1s-2,6.9-2,11c0,21.8,0,33.1,0,54.9c0,4.4,0.6,8.1,1.9,11.2c1.3,3.1,3.1,5.7,5.2,7.7
		c2.1,2.1,4.4,3.8,7,4.9c2.6,1.1,5.2,1.7,7.9,1.8s5.2-0.4,7.8-1.4s4.9-2.5,7-4.6c2-2,3.6-4.6,4.9-7.7c1.2-3.1,1.9-7,1.9-11.4v-56.7
		c0-4.3-0.6-8-1.9-11.3C732.8,110.6,731.2,107.9,729.1,105.9 M723.1,181.6c0,3.6-0.9,6.3-2.6,8c-1.7,1.7-3.8,2.5-6.2,2.5
		c-2.4-0.1-4.4-1-6.2-2.7c-1.7-1.7-2.6-4.4-2.6-8v-55.5c0-3.6,0.9-6.3,2.6-8c1.8-1.8,3.8-2.7,6.2-2.8c2.4-0.1,4.5,0.7,6.2,2.4
		c1.7,1.7,2.6,4.3,2.6,8V181.6z"/>
</g>
<g>
	<defs>
		<rect id="SVGID_29_" x="31" y="-153" width="792" height="612"/>
	</defs>
	<clipPath id="SVGID_30_">
		<use xlink:href="#SVGID_29_"  style="overflow:visible;"/>
	</clipPath>
	<path class="st15" d="M777.2,98.3c-7.1,0.3-10.7,0.4-18,0.8v108.3c6.9,0.2,10.2,0.3,16.9,0.5c7.1,0.2,12.4-2,16.1-6.7
		c3.7-4.8,5.5-12.3,5.5-22.8v-52.5c0-9.2-1.7-16.2-5.1-21C789.1,100.2,784.1,98,777.2,98.3 M786.1,179.8c0,4.8-0.7,8.2-2.1,10.4
		c-1.4,2.2-3.7,3.2-7.1,3.1c-2.2-0.1-3.3-0.1-5.5-0.1v-80.1c2.2-0.1,3.3-0.1,5.5-0.2c3.5-0.1,5.9,1,7.2,3.3c1.3,2.4,1.9,5.7,1.9,10
		L786.1,179.8L786.1,179.8z"/>
</g>
<g>
	<defs>
		<rect id="SVGID_31_" x="31" y="-153" width="792" height="612"/>
	</defs>
	<clipPath id="SVGID_32_">
		<use xlink:href="#SVGID_31_"  style="overflow:visible;"/>
	</clipPath>
	<path class="st16" d="M267.4,149.7v-11h-20.6v5.8v4.9v2.7h7V180c0,3.3-0.9,5.8-2.7,7.4c-1.8,1.6-4,2.4-6.5,2.5
		c-2.5,0-4.6-0.7-6.5-2.2c-1.8-1.6-2.8-4.1-2.8-7.4c0-20.7,0-31.4,0-52c0-3.4,0.9-5.9,2.8-7.4c1.8-1.5,4-2.3,6.5-2.2
		c2.5,0.1,4.7,1,6.5,2.6s2.7,3.9,2.8,7.1h13.6c-0.1-3.5-0.7-6.6-2-9.4c-1.3-3-3.1-5.5-5.2-7.5s-4.7-3.5-7.4-4.6s-5.5-1.7-8.2-1.8
		c-2.8-0.1-5.5,0.2-8.2,1.1s-5.1,2.2-7.3,4c-2.2,1.9-4,4.3-5.4,7.3c-1.3,3-2,6.4-2,10.4c0,20.9,0,31.7,0,52.6c0,4.2,0.7,7.7,2,10.6
		c1.3,2.9,3.2,5.2,5.4,7.1c2.1,1.8,4.6,3.3,7.3,4.3c2.7,0.9,5.5,1.3,8.2,1.2c2.8-0.1,5.5-0.6,8.2-1.7c2.7-1.1,5.2-2.6,7.4-4.6
		c2.1-1.9,3.9-4.3,5.2-7.1c1.3-2.9,2-6.3,2-10.3c0-11.1,0-17.2,0-27.8v-2.5H267.4z"/>
</g>
<g>
	<defs>
		<rect id="SVGID_33_" x="31" y="-153" width="792" height="612"/>
	</defs>
	<clipPath id="SVGID_34_">
		<use xlink:href="#SVGID_33_"  style="overflow:visible;"/>
	</clipPath>
	<path class="st17" d="M393.2,145c2.8-1.6,4.3-3.2,6-5.7c0.8-1.2,1.3-3.4,1.5-5c0.3-2.4,0.5-6.6-0.3-9.2c-0.7-2.6-2.2-4.9-3.9-6.9
		c-1.8-2-3.6-3.4-6.4-4.7c-2.8-1.3-6.2-2-10.2-2.2c-7.3-0.3-11.2-0.2-18.6-0.1c0,21.1,0,50.5,0,88.2c7-0.2,10.4-0.3,17.2-0.5
		c8.2-0.3,14-2.4,17.6-6.5c3.6-4,5.4-9.7,5.4-17.3V162c0-4.6-0.6-8.2-2-10.9C398.1,148.4,396,146.4,393.2,145 M373.9,123
		c2,0,3.3-0.2,5.4-0.1c4.2,0.1,6.7,1,8.3,3c1.6,2,1.8,8.3,0.3,10.3c-1.4,2.1-4.2,3.1-8.3,3c-2.2,0-3.4-0.1-5.7-0.1L373.9,123
		L373.9,123z M389.7,177.7c-0.2,1.8-0.6,3.3-1.3,4.6c-0.7,1.3-1.8,2.3-3.2,3.1c-1.4,0.8-3.4,1.2-5.9,1.2c-2.2,0-3.2,0.1-5.4,0.1
		c0-11.1,0-25.1,0-36.5c2.2,0,3.3,0,5.5,0c2.3,0,4.1,0.3,5.5,0.8s2.5,1.4,3.3,2.5c0.7,1.1,1.2,2.5,1.4,4.2c0.2,1.6,0.3,3.5,0.3,5.7
		C390,165.7,389.9,176,389.7,177.7"/>
</g>
<g>
	<defs>
		<rect id="SVGID_35_" x="31" y="-153" width="792" height="612"/>
	</defs>
	<clipPath id="SVGID_36_">
		<use xlink:href="#SVGID_35_"  style="overflow:visible;"/>
	</clipPath>
	<path class="st18" d="M533,200.7c-5.8-16.4-8.6-30.9-14.2-47.6c4.2-2.3,7.2-5.4,8.8-9.2c1.7-3.8,2.7-8.4,2.5-13.8
		c-0.4-14.1-7.8-19.7-23.1-19.4c-8.4,0.1-12.5,0.6-20.6,0.9c0,23.2,0,52.4,0,87.7c5.1,0.2,7.6,0.2,12.8,0.4v-43.8h7.7
		c4.8,15.4,7.3,29.3,12.2,44.4C524.6,200.5,527.4,200.6,533,200.7 M516.5,136.2c-0.2,1.7-0.7,3.3-1.4,4.4c-0.7,1.2-1.8,2.1-3.2,2.8
		c-1.4,0.6-3.2,1-5.5,1c-2.9,0-4.4,0-7.3,0.1v-21.7c2.7-0.1,4-0.1,6.7-0.2c4.5-0.2,7.9,0.8,9.5,3.1c1.1,1.3,1.6,2.2,1.6,4.5
		C516.9,132.5,516.8,134.5,516.5,136.2"/>
</g>
<rect x="31" y="-153" class="st4" width="792" height="612"/>
<rect x="31" y="-153" class="st4" width="792" height="612"/>
<g>
	<defs>
		<rect id="SVGID_37_" x="31" y="-153" width="792" height="612"/>
	</defs>
	<clipPath id="SVGID_38_">
		<use xlink:href="#SVGID_37_"  style="overflow:visible;"/>
	</clipPath>
	<polygon class="st19" points="360.3,247.7 364,247.7 364,254.4 370.8,254.4 370.8,247.7 374.5,247.7 374.5,264.5 370.8,264.5 
		370.8,257.8 364,257.8 364,264.5 360.3,264.5 	"/>
</g>
<g>
	<defs>
		<rect id="SVGID_39_" x="31" y="-153" width="792" height="612"/>
	</defs>
	<clipPath id="SVGID_40_">
		<use xlink:href="#SVGID_39_"  style="overflow:visible;"/>
	</clipPath>
	<path class="st20" d="M398.7,264.8c-1.3,0-2.5-0.2-3.6-0.7s-2-1.1-2.8-1.8c-0.8-0.8-1.4-1.7-1.8-2.7s-0.7-2.2-0.7-3.4l0,0
		c0-1.2,0.2-2.3,0.7-3.4c0.4-1,1.1-2,1.9-2.8s1.7-1.4,2.8-1.9c1.1-0.5,2.3-0.7,3.6-0.7c1.3,0,2.5,0.2,3.6,0.7s2,1.1,2.8,1.8
		c0.8,0.8,1.4,1.7,1.8,2.7s0.7,2.2,0.7,3.4l0,0c0,1.2-0.2,2.3-0.7,3.4c-0.4,1-1.1,2-1.9,2.8s-1.7,1.4-2.8,1.9
		C401.1,264.6,399.9,264.8,398.7,264.8 M398.7,261.4c0.7,0,1.4-0.1,2-0.4s1.2-0.6,1.6-1.1s0.8-1,1-1.7c0.2-0.6,0.4-1.3,0.4-2l0,0
		c0-0.7-0.1-1.4-0.4-2c-0.2-0.6-0.6-1.2-1.1-1.7s-1-0.9-1.6-1.1c-0.6-0.3-1.3-0.4-2-0.4c-0.8,0-1.4,0.1-2.1,0.4
		c-0.6,0.3-1.1,0.6-1.6,1.1c-0.4,0.5-0.8,1-1,1.7c-0.2,0.6-0.4,1.3-0.4,2l0,0c0,0.7,0.1,1.4,0.4,2c0.2,0.6,0.6,1.2,1.1,1.7
		s1,0.9,1.6,1.1C397.3,261.3,398,261.4,398.7,261.4"/>
</g>
<g>
	<defs>
		<rect id="SVGID_41_" x="31" y="-153" width="792" height="612"/>
	</defs>
	<clipPath id="SVGID_42_">
		<use xlink:href="#SVGID_41_"  style="overflow:visible;"/>
	</clipPath>
	<polygon class="st21" points="426.8,251.1 421.7,251.1 421.7,247.7 435.6,247.7 435.6,251.1 430.5,251.1 430.5,264.5 426.8,264.5 	
		"/>
</g>
<g>
	<defs>
		<rect id="SVGID_43_" x="31" y="-153" width="792" height="612"/>
	</defs>
	<clipPath id="SVGID_44_">
		<use xlink:href="#SVGID_43_"  style="overflow:visible;"/>
	</clipPath>
	<polygon class="st22" points="450.4,247.7 463,247.7 463,251 454.1,251 454.1,254.4 462,254.4 462,257.7 454.1,257.7 454.1,261.2 
		463.2,261.2 463.2,264.5 450.4,264.5 	"/>
</g>
<g>
	<defs>
		<rect id="SVGID_45_" x="31" y="-153" width="792" height="612"/>
	</defs>
	<clipPath id="SVGID_46_">
		<use xlink:href="#SVGID_45_"  style="overflow:visible;"/>
	</clipPath>
	<polygon class="st23" points="478.5,247.7 482.2,247.7 482.2,261.2 490.5,261.2 490.5,264.5 478.5,264.5 	"/>
</g>
<g>
	<defs>
		<rect id="SVGID_47_" x="31" y="-153" width="792" height="612"/>
	</defs>
	<clipPath id="SVGID_48_">
		<use xlink:href="#SVGID_47_"  style="overflow:visible;"/>
	</clipPath>
	<path class="st24" d="M507.3,256.8c0,1.1,0.9,2,2,2s2-0.9,2-2s-0.9-2-2-2C508.2,254.8,507.3,255.7,507.3,256.8"/>
</g>
<g>
	<defs>
		<rect id="SVGID_49_" x="31" y="-153" width="792" height="612"/>
	</defs>
	<clipPath id="SVGID_50_">
		<use xlink:href="#SVGID_49_"  style="overflow:visible;"/>
	</clipPath>
	<path class="st25" d="M341.5,256.8c0,1.1,0.9,2,2,2s2-0.9,2-2s-0.9-2-2-2C342.4,254.8,341.5,255.7,341.5,256.8"/>
</g>
<g id="L8vviX_1_">
	<g>
		<path d="M813.4,97.7c4.3,0,7.8,3.5,7.8,7.8c0,4.3-3.5,7.8-7.9,7.8c-4.3,0-7.8-3.5-7.8-7.9C805.6,101.2,809.1,97.7,813.4,97.7z
			 M813.4,112.3c3.8,0,6.8-3.1,6.8-6.8c0-3.8-3-6.8-6.8-6.8c-3.8,0-6.8,3-6.8,6.8C806.6,109.3,809.6,112.3,813.4,112.3z"/>
		<path d="M810.6,105.5c0-1.3,0-2.6,0-4c0-0.2,0-0.2,0.2-0.2c0.9,0,1.8,0,2.7,0c0.5,0,1,0.1,1.5,0.2c0.9,0.3,1.4,1,1.5,1.9
			c0.1,0.5,0,1-0.2,1.5c-0.1,0.3-0.4,0.5-0.6,0.7c-0.2,0.1-0.3,0.2-0.5,0.3c-0.1,0-0.1,0.1,0,0.1c0.2,0.3,0.3,0.6,0.5,0.9
			c0.2,0.4,0.5,0.9,0.7,1.3c0.2,0.3,0.3,0.6,0.5,1c0,0,0,0.1,0,0.1c0,0.1,0,0.1-0.1,0.1c-0.4,0-0.9,0-1.3,0c-0.1,0-0.1,0-0.1-0.1
			c-0.2-0.5-0.5-0.9-0.7-1.4c-0.2-0.4-0.5-0.9-0.7-1.3c0-0.1-0.1-0.2-0.1-0.3c0-0.1-0.1-0.1-0.1-0.1c-0.4,0-0.9,0-1.3,0
			c-0.1,0-0.1,0-0.1,0.1c0,0.5,0,0.9,0,1.4c0,0.5,0,1,0,1.5c0,0.1,0,0.2-0.1,0.2c-0.4,0-0.8,0-1.2,0c-0.1,0-0.1,0-0.1-0.1
			C810.6,108.2,810.6,106.9,810.6,105.5z M812,104c0,0.4,0,0.8,0,1.2c0,0.1,0,0.1,0.1,0.1c0.5,0,0.9,0,1.4,0c0.2,0,0.5,0,0.7-0.1
			c0.4-0.2,0.6-0.5,0.7-0.9c0-0.2,0-0.4,0-0.6c0-0.3-0.2-0.6-0.5-0.8c-0.2-0.2-0.5-0.2-0.8-0.2c-0.5,0-1,0-1.5,0
			c-0.1,0-0.1,0-0.1,0.1C812,103.1,812,103.5,812,104z"/>
	</g>
</g>
</svg>
